<?xml version="1.0" standalone="no"?>
<!DOCTYPE svg PUBLIC "-//W3C//DTD SVG 20010904//EN"
 "http://www.w3.org/TR/2001/REC-SVG-20010904/DTD/svg10.dtd">
<svg version="1.0" xmlns="http://www.w3.org/2000/svg"
 width="3799.000000pt" height="1578.000000pt" viewBox="0 0 3799.000000 1578.000000"
 preserveAspectRatio="xMidYMid meet">

<g transform="translate(0.000000,1578.000000) scale(0.100000,-0.100000)"
fill="#000000" stroke="none">
<path d="M22785 9166 c-228 -44 -392 -181 -479 -399 -57 -143 -58 -161 -63
-812 -6 -750 4 -860 86 -1023 120 -237 326 -355 621 -355 156 0 248 20 360 74
204 101 339 317 368 592 l8 77 -148 0 -148 0 0 -28 c0 -46 -36 -176 -65 -232
-77 -152 -258 -234 -447 -202 -174 30 -283 141 -324 330 -20 99 -20 1276 1
1375 50 235 193 348 422 335 103 -7 176 -31 237 -82 80 -65 137 -183 153 -317
l8 -64 148 -3 148 -3 -6 53 c-10 87 -25 159 -46 228 -70 224 -236 386 -454
445 -82 22 -291 28 -380 11z"/>
<path d="M21006 9113 c-14 -46 -636 -2472 -636 -2482 0 -8 45 -11 153 -11
l153 0 65 268 64 267 366 3 365 2 63 -262 c35 -145 67 -266 70 -271 4 -4 75
-6 158 -5 l150 3 -321 1250 -321 1250 -162 3 c-147 2 -162 1 -167 -15z m179
-410 c18 -128 76 -394 171 -791 57 -240 107 -445 110 -454 5 -17 -13 -18 -294
-18 l-299 0 104 428 c104 431 167 722 179 825 4 32 10 57 14 57 4 0 11 -21 15
-47z"/>
<path d="M24490 9126 c0 -3 -141 -555 -314 -1228 -173 -673 -318 -1235 -321
-1250 l-7 -28 155 0 155 0 57 233 c31 127 60 249 66 270 l10 37 364 0 363 0
57 -232 c31 -128 61 -250 66 -270 l10 -38 156 0 155 0 -6 23 c-3 12 -148 577
-323 1255 l-317 1232 -163 0 c-90 0 -163 -2 -163 -4z m205 -576 c19 -109 162
-727 252 -1087 l5 -23 -296 0 c-163 0 -296 4 -296 9 0 4 49 213 109 462 103
429 136 578 161 729 6 36 14 79 17 95 l6 30 8 -35 c5 -19 20 -100 34 -180z"/>
<path d="M25850 7875 l0 -1256 393 3 c372 4 396 6 467 27 121 36 206 86 290
171 86 85 136 171 172 295 l23 80 0 680 c0 765 3 732 -77 895 -76 157 -222
275 -408 331 -71 21 -95 23 -467 27 l-393 3 0 -1256z m745 960 c166 -44 262
-151 301 -336 13 -61 15 -165 12 -658 -3 -566 -4 -588 -25 -648 -28 -83 -63
-142 -112 -186 -96 -86 -179 -107 -438 -107 l-193 0 0 975 0 975 198 0 c145 0
213 -4 257 -15z"/>
<path d="M27750 7875 l0 -1255 620 0 620 0 0 135 0 135 -470 0 -470 0 0 435 0
435 420 0 420 0 0 135 0 135 -420 0 -420 0 0 415 0 415 450 0 450 0 0 135 0
135 -600 0 -600 0 0 -1255z"/>
<path d="M29490 7875 l0 -1255 145 0 145 0 0 634 c0 580 -11 1128 -26 1234 -3
27 -1 42 6 42 6 0 13 -6 15 -12 27 -83 426 -1120 502 -1305 4 -10 44 -13 153
-13 109 0 149 3 153 13 29 71 411 1065 449 1167 28 74 55 140 60 145 6 6 8
-24 4 -85 -3 -52 -9 -483 -12 -957 l-6 -863 146 0 146 0 0 1255 0 1255 -154 0
-154 0 -20 -47 c-201 -472 -484 -1177 -564 -1403 -22 -63 -43 -119 -48 -123
-4 -5 -11 4 -14 19 -22 88 -182 499 -381 979 -125 303 -229 556 -232 563 -4 9
-45 12 -159 12 l-154 0 0 -1255z"/>
<path d="M31745 9113 c4 -10 144 -384 311 -831 l304 -812 0 -425 0 -425 145 0
145 0 0 424 0 424 306 813 c169 448 309 822 311 832 5 16 -7 17 -149 17 l-155
0 -168 -467 c-92 -258 -194 -548 -228 -647 l-60 -179 -63 184 c-35 101 -137
391 -227 644 l-164 460 -158 3 c-147 2 -157 1 -150 -15z"/>
</g>
</svg>
